<svg width="1200" height="760" viewBox="0 0 1200 760" fill="none" xmlns="http://www.w3.org/2000/svg">
  <defs>
    <linearGradient id="bg" x1="0" y1="0" x2="1200" y2="760" gradientUnits="userSpaceOnUse">
      <stop stop-color="#0F172A"/>
      <stop offset="1" stop-color="#1E293B"/>
    </linearGradient>
  </defs>
  <rect width="1200" height="760" rx="18" fill="url(#bg)"/>
  <rect x="24" y="24" width="1152" height="58" rx="10" fill="#0D9488"/>
  <text x="44" y="60" fill="#F8FAFC" font-family="Helvetica, Arial, sans-serif" font-size="24" font-weight="700">Simulation Settings</text>

  <rect x="24" y="98" width="220" height="620" rx="12" fill="#111827" stroke="#334155"/>
  <rect x="38" y="122" width="192" height="48" rx="8" fill="#14B8A6"/>
  <text x="88" y="152" fill="#ECFEFF" font-family="Helvetica, Arial, sans-serif" font-size="18" font-weight="700">Transient</text>
  <rect x="38" y="184" width="192" height="48" rx="8" fill="#1F2937"/>
  <text x="102" y="214" fill="#94A3B8" font-family="Helvetica, Arial, sans-serif" font-size="18">Solver</text>
  <rect x="38" y="246" width="192" height="48" rx="8" fill="#1F2937"/>
  <text x="102" y="276" fill="#94A3B8" font-family="Helvetica, Arial, sans-serif" font-size="18">Output</text>

  <rect x="264" y="98" width="912" height="620" rx="12" fill="#111827" stroke="#334155"/>
  <text x="290" y="138" fill="#E2E8F0" font-family="Helvetica, Arial, sans-serif" font-size="20" font-weight="700">Time Settings</text>

  <text x="290" y="182" fill="#94A3B8" font-family="monospace" font-size="14">Start time</text>
  <rect x="420" y="162" width="240" height="34" rx="7" fill="#1F2937"/>
  <text x="435" y="184" fill="#E2E8F0" font-family="monospace" font-size="14">0 s</text>

  <text x="290" y="226" fill="#94A3B8" font-family="monospace" font-size="14">Stop time</text>
  <rect x="420" y="206" width="240" height="34" rx="7" fill="#1F2937"/>
  <text x="435" y="228" fill="#E2E8F0" font-family="monospace" font-size="14">10 ms</text>

  <text x="290" y="270" fill="#94A3B8" font-family="monospace" font-size="14">Time step</text>
  <rect x="420" y="250" width="240" height="34" rx="7" fill="#1F2937"/>
  <text x="435" y="272" fill="#E2E8F0" font-family="monospace" font-size="14">1 us</text>

  <text x="290" y="332" fill="#E2E8F0" font-family="Helvetica, Arial, sans-serif" font-size="20" font-weight="700">Quick Presets</text>
  <rect x="290" y="352" width="84" height="36" rx="8" fill="#334155"/><text x="320" y="376" fill="#E2E8F0" font-family="monospace" font-size="13">1us</text>
  <rect x="384" y="352" width="84" height="36" rx="8" fill="#334155"/><text x="412" y="376" fill="#E2E8F0" font-family="monospace" font-size="13">10us</text>
  <rect x="478" y="352" width="84" height="36" rx="8" fill="#334155"/><text x="504" y="376" fill="#E2E8F0" font-family="monospace" font-size="13">100us</text>
  <rect x="572" y="352" width="84" height="36" rx="8" fill="#334155"/><text x="603" y="376" fill="#E2E8F0" font-family="monospace" font-size="13">1ms</text>
  <rect x="666" y="352" width="84" height="36" rx="8" fill="#334155"/><text x="694" y="376" fill="#E2E8F0" font-family="monospace" font-size="13">10ms</text>
  <rect x="760" y="352" width="84" height="36" rx="8" fill="#334155"/><text x="788" y="376" fill="#E2E8F0" font-family="monospace" font-size="13">100ms</text>

  <text x="290" y="444" fill="#E2E8F0" font-family="Helvetica, Arial, sans-serif" font-size="20" font-weight="700">Solver Summary</text>
  <rect x="290" y="462" width="860" height="176" rx="10" fill="#0B1220" stroke="#334155"/>
  <text x="314" y="500" fill="#93C5FD" font-family="monospace" font-size="14">Method: Auto / RK4 / RK45 / BDF</text>
  <text x="314" y="530" fill="#93C5FD" font-family="monospace" font-size="14">Newton: max iterations, voltage limiting, max voltage step</text>
  <text x="314" y="560" fill="#93C5FD" font-family="monospace" font-size="14">DC Strategy: Auto, Direct, GMIN, Source, Pseudo-transient</text>
  <text x="314" y="590" fill="#93C5FD" font-family="monospace" font-size="14">Tolerances: max step, rel_tol, abs_tol</text>

  <rect x="966" y="664" width="92" height="38" rx="8" fill="#334155"/>
  <text x="997" y="689" fill="#E2E8F0" font-family="Helvetica, Arial, sans-serif" font-size="14">Cancel</text>
  <rect x="1066" y="664" width="92" height="38" rx="8" fill="#0D9488"/>
  <text x="1103" y="689" fill="#ECFEFF" font-family="Helvetica, Arial, sans-serif" font-size="14" font-weight="700">OK</text>
</svg>
