<?xml version="1.0" encoding="UTF-8"?>
<svg width="256" height="256" viewBox="0 0 256 256" xmlns="http://www.w3.org/2000/svg" role="img" aria-label="Pulsim logo">
  <defs>
    <linearGradient id="bg" x1="0%" y1="0%" x2="100%" y2="100%">
      <stop offset="0%" stop-color="#0f172a"/>
      <stop offset="50%" stop-color="#111827"/>
      <stop offset="100%" stop-color="#1f2937"/>
    </linearGradient>
    <linearGradient id="trace" x1="0%" y1="0%" x2="100%" y2="0%">
      <stop offset="0%" stop-color="#22d3ee"/>
      <stop offset="50%" stop-color="#34d399"/>
      <stop offset="100%" stop-color="#f59e0b"/>
    </linearGradient>
  </defs>

  <rect x="12" y="12" width="232" height="232" rx="42" fill="url(#bg)"/>
  <rect x="12" y="12" width="232" height="232" rx="42" fill="none" stroke="#334155" stroke-width="1.5"/>

  <g opacity="0.18" stroke="#64748b" stroke-width="1">
    <line x1="40" y1="72" x2="216" y2="72"/>
    <line x1="40" y1="128" x2="216" y2="128"/>
    <line x1="40" y1="184" x2="216" y2="184"/>
    <line x1="72" y1="40" x2="72" y2="216"/>
    <line x1="128" y1="40" x2="128" y2="216"/>
    <line x1="184" y1="40" x2="184" y2="216"/>
  </g>

  <path
    d="M 42 150 L 70 150 L 70 102 L 94 102 L 94 150 L 122 150 L 122 116 L 146 116 L 146 150 L 174 150 L 174 90 L 198 90 L 198 150 L 214 150"
    fill="none"
    stroke="#14b8a6"
    stroke-opacity="0.18"
    stroke-width="11"
    stroke-linecap="round"
    stroke-linejoin="round"
  />
  <path
    d="M 42 150 L 70 150 L 70 102 L 94 102 L 94 150 L 122 150 L 122 116 L 146 116 L 146 150 L 174 150 L 174 90 L 198 90 L 198 150 L 214 150"
    fill="none"
    stroke="url(#trace)"
    stroke-width="8"
    stroke-linecap="round"
    stroke-linejoin="round"
  />

  <g stroke="#e2e8f0" stroke-width="4.5" stroke-linecap="round" opacity="0.95">
    <line x1="112" y1="66" x2="112" y2="92"/>
    <line x1="122" y1="66" x2="122" y2="92"/>
    <line x1="112" y1="66" x2="122" y2="66"/>
  </g>

  <circle cx="42" cy="150" r="6" fill="#22d3ee"/>
  <circle cx="214" cy="150" r="6" fill="#f59e0b"/>

  <text
    x="128"
    y="205"
    text-anchor="middle"
    font-family="Inter, Segoe UI, Helvetica Neue, Arial, sans-serif"
    font-size="26"
    font-weight="700"
    letter-spacing="3.5"
    fill="#e5e7eb"
  >
    PULSIM
  </text>
</svg>
